<svg width="24" height="18" viewBox="0 0 24 18" fill="none" xmlns="http://www.w3.org/2000/svg">
<path d="M9.6 12.6001L15.828 9.0001L9.6 5.4001V12.6001ZM23.472 3.2041C23.628 3.7681 23.736 4.5241 23.808 5.4841C23.892 6.4441 23.928 7.2721 23.928 7.9921L24 9.0001C24 11.6281 23.808 13.5601 23.472 14.7961C23.172 15.8761 22.476 16.5721 21.396 16.8721C20.832 17.0281 19.8 17.1361 18.216 17.2081C16.656 17.2921 15.228 17.3281 13.908 17.3281L12 17.4001C6.972 17.4001 3.84 17.2081 2.604 16.8721C1.524 16.5721 0.828 15.8761 0.528 14.7961C0.372 14.2321 0.264 13.4761 0.192 12.5161C0.108 11.5561 0.0719999 10.7281 0.0719999 10.0081L0 9.0001C0 6.3721 0.192 4.4401 0.528 3.2041C0.828 2.1241 1.524 1.4281 2.604 1.1281C3.168 0.972098 4.2 0.864097 5.784 0.792097C7.344 0.708097 8.772 0.672098 10.092 0.672098L12 0.600098C17.028 0.600098 20.16 0.792098 21.396 1.1281C22.476 1.4281 23.172 2.1241 23.472 3.2041Z" fill="black"/>
</svg>
